<svg xmlns="http://www.w3.org/2000/svg" viewBox="0 0 1200 860" role="img" aria-labelledby="title desc">
  <title id="title">Fachada de SIMARASTORE</title>
  <desc id="desc">Ilustraci&#243;n de la fachada de la boutique SIMARASTORE basada en la imagen compartida.</desc>
  <defs>
    <linearGradient id="wall" x1="0%" x2="0%" y1="0%" y2="100%">
      <stop offset="0%" stop-color="#f4eadc" />
      <stop offset="100%" stop-color="#efe4d4" />
    </linearGradient>
    <linearGradient id="glass" x1="0%" x2="100%" y1="0%" y2="100%">
      <stop offset="0%" stop-color="#8da7a2" />
      <stop offset="100%" stop-color="#5d6f6c" />
    </linearGradient>
    <linearGradient id="awning" x1="0%" x2="100%" y1="0%" y2="100%">
      <stop offset="0%" stop-color="#3f6e60" />
      <stop offset="100%" stop-color="#295244" />
    </linearGradient>
    <linearGradient id="interior" x1="0%" x2="0%" y1="0%" y2="100%">
      <stop offset="0%" stop-color="#2c2b28" />
      <stop offset="100%" stop-color="#0f1110" />
    </linearGradient>
    <filter id="shadow" x="-10%" y="-10%" width="120%" height="120%">
      <feDropShadow dx="0" dy="18" stdDeviation="18" flood-color="#2b221d" flood-opacity="0.16" />
    </filter>
  </defs>

  <rect width="1200" height="860" fill="url(#wall)" />
  <rect y="110" width="1200" height="80" fill="#f5ebde" />
  <rect x="70" y="190" width="1060" height="478" rx="14" fill="#f8f3ea" filter="url(#shadow)" />

  <rect x="96" y="120" width="1008" height="154" rx="10" fill="url(#awning)" />
  <path
    d="M96 168c106-34 286-46 436-38 186 10 360 58 572 124v20H96v-106Z"
    fill="rgba(255,255,255,0.08)"
  />

  <rect x="122" y="284" width="144" height="354" fill="url(#interior)" />
  <rect x="148" y="292" width="98" height="342" fill="#403a34" />
  <rect x="170" y="304" width="60" height="312" fill="#1d1e1c" />
  <rect x="236" y="284" width="24" height="354" fill="#c5b59a" />

  <rect x="266" y="284" width="302" height="354" fill="#fffdf8" />
  <text
    x="417"
    y="404"
    text-anchor="middle"
    font-family="'Bodoni MT', Didot, 'Times New Roman', serif"
    font-size="66"
    fill="#1f2b1e"
  >
    SIMARA
  </text>
  <text
    x="417"
    y="445"
    text-anchor="middle"
    font-family="'Helvetica Neue', Arial, sans-serif"
    font-size="24"
    letter-spacing="6"
    fill="#1f2b1e"
  >
    STORE
  </text>

  <rect x="568" y="284" width="470" height="354" fill="url(#glass)" />
  <rect x="576" y="292" width="454" height="338" fill="rgba(255,255,255,0.16)" />
  <path
    d="M588 306c92 16 184 18 278 4 62-10 122-22 164-28v316H588V306Z"
    fill="rgba(255,255,255,0.08)"
  />

  <rect x="636" y="354" width="16" height="92" rx="8" fill="#d8c39b" />
  <rect x="746" y="354" width="16" height="92" rx="8" fill="#d8c39b" />
  <rect x="874" y="354" width="16" height="92" rx="8" fill="#d8c39b" />

  <path d="M610 420h74l22 52-24 62h-70l-20-64 18-50Z" fill="#b8d4dd" />
  <path d="M714 428h112l-20 54 12 64H730l-18-66 2-52Z" fill="#f2ece7" />
  <path d="M826 426h128l-18 56 6 62h-94l-14-62 10-56Z" fill="#d9d3ef" />
  <path d="M716 546h98l34 44H690l26-44Z" fill="#7690b0" />

  <rect x="700" y="498" width="56" height="34" rx="10" fill="#e9b8b0" />
  <rect x="764" y="498" width="56" height="34" rx="10" fill="#f0c59f" />

  <g fill="#d99fb2">
    <circle cx="931" cy="466" r="24" />
    <circle cx="975" cy="466" r="24" />
  </g>
  <path d="M928 458c16-20 41-20 50 2 4 10 1 24-14 38l-12 12-14-12c-18-16-23-29-18-40 2-6 5-11 8-14Z" fill="none" stroke="#f7d7e1" stroke-width="5" />

  <g fill="#f2c973">
    <path d="M672 310c18 0 34 10 46 28l18 30h-128l18-30c12-18 28-28 46-28Z" />
    <path d="M840 312c18 0 34 10 46 28l18 30H776l18-30c12-18 28-28 46-28Z" />
  </g>

  <g fill="#b6db96">
    <circle cx="620" cy="616" r="8" />
    <circle cx="672" cy="614" r="7" />
    <circle cx="732" cy="618" r="8" />
    <circle cx="790" cy="616" r="7" />
    <circle cx="852" cy="614" r="8" />
    <circle cx="916" cy="618" r="7" />
    <circle cx="978" cy="616" r="8" />
  </g>
  <g fill="#e695a9">
    <circle cx="646" cy="618" r="7" />
    <circle cx="704" cy="616" r="7" />
    <circle cx="764" cy="620" r="7" />
    <circle cx="882" cy="618" r="7" />
    <circle cx="944" cy="616" r="7" />
  </g>

  <rect x="0" y="668" width="1200" height="192" fill="#d2c0a8" />
  <g stroke="#c3af95" stroke-width="4">
    <path d="M0 736h1200" />
    <path d="M0 804h1200" />
    <path d="M100 668v192" />
    <path d="M220 668v192" />
    <path d="M340 668v192" />
    <path d="M460 668v192" />
    <path d="M580 668v192" />
    <path d="M700 668v192" />
    <path d="M820 668v192" />
    <path d="M940 668v192" />
    <path d="M1060 668v192" />
  </g>
</svg>
